<?xml version="1.0" encoding="UTF-8" standalone="no"?>
<!-- Created with Inkscape (http://www.inkscape.org/) -->

<svg
   xmlns:dc="http://purl.org/dc/elements/1.1/"
   xmlns:cc="http://creativecommons.org/ns#"
   xmlns:rdf="http://www.w3.org/1999/02/22-rdf-syntax-ns#"
   xmlns:svg="http://www.w3.org/2000/svg"
   xmlns="http://www.w3.org/2000/svg"
   xmlns:sodipodi="http://sodipodi.sourceforge.net/DTD/sodipodi-0.dtd"
   xmlns:inkscape="http://www.inkscape.org/namespaces/inkscape"
   width="27.810268mm"
   height="32.035763mm"
   viewBox="0 0 27.810268 32.035763"
   version="1.1"
   id="svg4560"
   inkscape:version="0.92.1 r15371"
   sodipodi:docname="3.svg">
  <defs
     id="defs4554" />
  <sodipodi:namedview
     id="base"
     pagecolor="#ffffff"
     bordercolor="#666666"
     borderopacity="1.0"
     inkscape:pageopacity="0.0"
     inkscape:pageshadow="2"
     inkscape:zoom="3.959798"
     inkscape:cx="180.81935"
     inkscape:cy="113.86051"
     inkscape:document-units="mm"
     inkscape:current-layer="layer1"
     showgrid="false"
     scale-x="0.9"
     fit-margin-top="0"
     fit-margin-left="0"
     fit-margin-right="0"
     fit-margin-bottom="0"
     inkscape:window-width="1366"
     inkscape:window-height="705"
     inkscape:window-x="-8"
     inkscape:window-y="-8"
     inkscape:window-maximized="1" />
  <metadata
     id="metadata4557">
    <rdf:RDF>
      <cc:Work
         rdf:about="">
        <dc:format>image/svg+xml</dc:format>
        <dc:type
           rdf:resource="http://purl.org/dc/dcmitype/StillImage" />
        <dc:title></dc:title>
      </cc:Work>
    </rdf:RDF>
  </metadata>
  <g
     inkscape:label="Layer 1"
     inkscape:groupmode="layer"
     id="layer1"
     transform="translate(-37.194032,-166.09896)">
    <path
       style="fill:#3e3e3e;stroke-width:0.35277778"
       d="m 37.433302,197.97064 c -0.131599,-0.1316 -0.23927,-6.38708 -0.23927,-13.90107 0,-12.13233 0.06247,-13.68576 0.558019,-13.87592 0.306911,-0.11778 2.132536,-0.21413 4.056945,-0.21413 1.924408,0 3.498925,-0.14742 3.498925,-0.32758 0,-0.79636 1.190095,-1.43631 2.671032,-1.43631 1.073515,0 1.562301,-0.14845 1.562301,-0.47449 0,-0.68281 1.169327,-1.64218 2.001574,-1.64218 0.757611,0 1.878982,1.01663 1.878982,1.70347 0,0.25354 0.603661,0.4132 1.562301,0.4132 1.480937,0 2.671032,0.63995 2.671032,1.43631 0,0.18016 1.468437,0.33001 3.263194,0.33298 1.794757,0.003 3.463523,0.13257 3.70837,0.288 0.348548,0.22126 0.42512,3.26381 0.352778,14.01751 l -0.0924,13.73492 -13.607258,0.0923 c -7.483992,0.0507 -13.714929,-0.0154 -13.846527,-0.14699 z M 63.652365,184.26701 V 171.7434 h -2.998611 c -2.763426,0 -2.998611,0.0553 -2.998611,0.70556 0,0.67868 -0.235186,0.70556 -6.173611,0.70556 -5.938426,0 -6.173611,-0.0269 -6.173611,-0.70556 0,-0.65604 -0.235186,-0.70556 -3.351389,-0.70556 h -3.351389 v 12.52361 12.52361 h 12.523611 12.523611 z m -19.90867,8.56923 c -0.666946,-0.9522 -0.161705,-1.68495 0.680085,-0.98633 0.472186,0.39188 0.705403,0.31987 1.533561,-0.47356 1.084281,-1.03881 1.467246,-1.16298 1.467246,-0.47576 0,0.56008 -2.167479,2.71504 -2.730818,2.71504 -0.222296,0 -0.649829,-0.35073 -0.950074,-0.77939 z m 5.627065,-0.62219 c -0.124852,-0.20201 -0.0066,-0.45188 0.262793,-0.55525 0.856151,-0.32854 7.139645,-0.004 7.139645,0.36933 0,0.48689 -7.10612,0.66537 -7.402438,0.18592 z m -5.472644,-4.06509 c -0.912205,-0.971 -0.695983,-1.61935 0.326989,-0.98049 0.535825,0.33462 0.7898,0.2554 1.456562,-0.45433 0.877558,-0.93412 1.74292,-1.13255 1.74292,-0.39966 0,0.43348 -2.111725,2.71503 -2.512939,2.71503 -0.102462,0 -0.558551,-0.39624 -1.013532,-0.88055 z m 5.53711,-0.4014 c -0.66745,-0.66745 0.0666,-0.83471 3.663204,-0.83471 2.970774,0 3.874825,0.10592 3.76371,0.44097 -0.159864,0.48204 -6.977189,0.84347 -7.426914,0.39374 z m -5.694688,-4.34026 c -0.803563,-0.88793 -0.428876,-1.58253 0.566347,-1.0499 0.596372,0.31917 0.883802,0.22845 1.673589,-0.52821 1.06205,-1.01751 1.444113,-1.13752 1.444113,-0.4536 0,0.5411 -2.158813,2.71504 -2.696146,2.71504 -0.203226,0 -0.647782,-0.3075 -0.987903,-0.68333 z m 5.536133,-0.81598 c 0.104948,-0.31484 1.189645,-0.44097 3.792361,-0.44097 2.602716,0 3.687413,0.12613 3.792361,0.44097 0.111742,0.33523 -0.79767,0.44097 -3.792361,0.44097 -2.994692,0 -3.904104,-0.10574 -3.792361,-0.44097 z m -5.415139,-3.82764 c -0.889943,-0.88994 -0.384752,-1.81082 0.562248,-1.02488 0.472186,0.39188 0.705403,0.31987 1.533561,-0.47356 1.084281,-1.03881 1.467246,-1.16298 1.467246,-0.47576 0,0.47104 -2.127782,2.71503 -2.574433,2.71503 -0.136284,0 -0.581164,-0.33337 -0.988622,-0.74083 z m 5.509228,-0.66074 c -0.124852,-0.20201 -0.0066,-0.45188 0.262793,-0.55525 0.856151,-0.32854 7.139645,-0.004 7.139645,0.36932 0,0.4869 -7.10612,0.66538 -7.402438,0.18593 z m 6.873272,-7.39943 c 0,-1.00508 -0.06173,-1.04347 -1.843511,-1.14653 -1.517018,-0.0877 -1.915232,-0.25114 -2.248474,-0.92261 -0.510852,-1.02934 -0.830179,-1.02934 -1.341031,0 -0.333241,0.67147 -0.731456,0.83486 -2.248473,0.92261 -1.781782,0.10306 -1.843511,0.14145 -1.843511,1.14653 v 1.03989 h 4.7625 4.7625 z m -5.291667,-0.37122 c 0,-0.39197 0.235185,-0.70555 0.529167,-0.70555 0.293981,0 0.529166,0.31358 0.529166,0.70555 0,0.39198 -0.235185,0.70556 -0.529166,0.70556 -0.293982,0 -0.529167,-0.31358 -0.529167,-0.70556 z"
       id="path4604"
       inkscape:connector-curvature="0" />
  </g>
</svg>
