<?xml version="1.0" encoding="UTF-8" standalone="no"?>
<!-- Created with Inkscape (http://www.inkscape.org/) -->

<svg
   xmlns:dc="http://purl.org/dc/elements/1.1/"
   xmlns:cc="http://creativecommons.org/ns#"
   xmlns:rdf="http://www.w3.org/1999/02/22-rdf-syntax-ns#"
   xmlns:svg="http://www.w3.org/2000/svg"
   xmlns="http://www.w3.org/2000/svg"
   xmlns:sodipodi="http://sodipodi.sourceforge.net/DTD/sodipodi-0.dtd"
   xmlns:inkscape="http://www.inkscape.org/namespaces/inkscape"
   width="27.632673mm"
   height="26.575974mm"
   viewBox="0 0 27.632673 26.575974"
   version="1.1"
   id="svg4560"
   inkscape:version="0.92.1 r15371"
   sodipodi:docname="2.svg">
  <defs
     id="defs4554" />
  <sodipodi:namedview
     id="base"
     pagecolor="#ffffff"
     bordercolor="#666666"
     borderopacity="1.0"
     inkscape:pageopacity="0.0"
     inkscape:pageshadow="2"
     inkscape:zoom="3.959798"
     inkscape:cx="79.122113"
     inkscape:cy="55.542774"
     inkscape:document-units="mm"
     inkscape:current-layer="layer1"
     showgrid="false"
     scale-x="0.9"
     fit-margin-top="0"
     fit-margin-left="0"
     fit-margin-right="0"
     fit-margin-bottom="0"
     inkscape:window-width="1366"
     inkscape:window-height="705"
     inkscape:window-x="-8"
     inkscape:window-y="-8"
     inkscape:window-maximized="1" />
  <metadata
     id="metadata4557">
    <rdf:RDF>
      <cc:Work
         rdf:about="">
        <dc:format>image/svg+xml</dc:format>
        <dc:type
           rdf:resource="http://purl.org/dc/dcmitype/StillImage" />
        <dc:title></dc:title>
      </cc:Work>
    </rdf:RDF>
  </metadata>
  <g
     inkscape:label="Layer 1"
     inkscape:groupmode="layer"
     id="layer1"
     transform="translate(-64.101427,-172.16502)">
    <g
       id="g4573"
       transform="translate(0.86862597,4.8108515)">
      <path
         style="fill:#fbfbfb;stroke-width:0.35277778"
         d="m 64.583532,182.52361 v -10.05416 h 12.523611 12.523611 v 10.05416 10.05417 H 77.107143 64.583532 Z m 12.935642,0.34904 c 0.420645,-1.55017 0.777833,-3.17567 0.79375,-3.61223 0.04834,-1.32567 -0.967537,-0.92665 -1.347213,0.52917 -0.894701,3.43061 -1.446068,5.67929 -1.446068,5.89762 0,0.13174 0.277813,0.18651 0.617361,0.12172 0.443121,-0.0846 0.833216,-0.91328 1.38217,-2.93628 z m -3.569314,1.2098 c 0.12966,-0.2098 -0.175986,-0.8112 -0.679213,-1.33646 l -0.91496,-0.95501 0.951789,-0.95179 c 0.745381,-0.74538 0.859089,-1.04449 0.524331,-1.37925 -0.334758,-0.33475 -0.695371,-0.16778 -1.662866,0.76995 -0.679475,0.65857 -1.235409,1.35715 -1.235409,1.55238 0,0.41344 2.129637,2.68162 2.517828,2.68162 0.144515,0 0.36884,-0.17165 0.4985,-0.38144 z m 8.167572,-0.7461 c 0.639827,-0.62014 1.163322,-1.30337 1.163322,-1.51829 0,-0.21492 -0.555934,-0.9296 -1.235409,-1.58817 -0.967495,-0.93773 -1.328108,-1.1047 -1.662866,-0.76995 -0.334758,0.33476 -0.22105,0.63387 0.524331,1.37925 l 0.951789,0.95179 -0.91496,0.95501 c -0.503227,0.52526 -0.808873,1.12666 -0.679213,1.33646 0.355309,0.5749 0.58586,0.48207 1.853006,-0.7461 z m -17.5339,-13.51274 v -1.23472 h 12.523611 12.523611 v 1.23472 1.23473 H 77.107143 64.583532 Z m 2.169583,0 c 0,-0.18432 -0.170656,-0.39202 -0.379236,-0.46155 -0.20858,-0.0695 -0.379236,0.13817 -0.379236,0.46155 0,0.32338 0.170656,0.53108 0.379236,0.46155 0.20858,-0.0695 0.379236,-0.27722 0.379236,-0.46155 z m 1.710973,0.23519 c 0,-0.45934 -0.419373,-0.76484 -0.760516,-0.554 -0.364849,0.22549 -0.05025,0.84798 0.428558,0.84798 0.182577,0 0.331958,-0.13229 0.331958,-0.29398 z m 1.411111,-0.23519 c 0,-0.29104 -0.149381,-0.52916 -0.331958,-0.52916 -0.444845,0 -0.763445,0.55089 -0.4816,0.83274 0.397293,0.39729 0.813558,0.24196 0.813558,-0.30358 z"
         id="path4577"
         inkscape:connector-curvature="0" />
      <path
         style="fill:#3c3c3c;stroke-width:0.35277778"
         d="m 63.334839,193.55053 c -0.09427,-0.24567 -0.129693,-6.24035 -0.07872,-13.32152 l 0.09269,-12.87484 h 13.758333 13.758333 v 13.22916 13.22917 l -13.679617,0.0924 c -10.779222,0.0728 -13.715959,-0.002 -13.85102,-0.35432 z M 89.630754,182.52361 V 172.46945 H 77.107143 64.583532 v 10.05416 10.05417 h 12.523611 12.523611 z m -14.111111,3.1636 c 0,-0.21833 0.551367,-2.46701 1.446068,-5.89762 0.379676,-1.45582 1.395549,-1.85484 1.347213,-0.52917 -0.01592,0.43656 -0.373105,2.06206 -0.79375,3.61223 -0.548954,2.023 -0.939049,2.85172 -1.38217,2.93628 -0.339548,0.0648 -0.617361,0.01 -0.617361,-0.12172 z m -3.458574,-2.38664 c -0.620146,-0.63983 -1.127537,-1.32306 -1.127537,-1.5183 0,-0.19523 0.555934,-0.89381 1.235409,-1.55238 0.967495,-0.93773 1.328108,-1.1047 1.662866,-0.76995 0.334758,0.33476 0.22105,0.63387 -0.524331,1.37925 l -0.951789,0.95179 0.91496,0.95501 c 0.503227,0.52526 0.808873,1.12666 0.679213,1.33646 -0.368192,0.59574 -0.677742,0.4676 -1.888791,-0.78188 z m 8.203357,0.78188 c -0.12966,-0.2098 0.175986,-0.8112 0.679213,-1.33646 l 0.91496,-0.95501 -0.951789,-0.95179 c -0.745381,-0.74538 -0.859089,-1.04449 -0.524331,-1.37925 0.334758,-0.33475 0.695371,-0.16778 1.662866,0.76995 0.679475,0.65857 1.235409,1.37325 1.235409,1.58817 0,0.40856 -2.159293,2.64583 -2.553614,2.64583 -0.124833,0 -0.333054,-0.17165 -0.462714,-0.38144 z m 9.366328,-14.25884 v -1.23472 H 77.107143 64.583532 v 1.23472 1.23473 h 12.523611 12.523611 z m -23.636111,0 c 0,-0.32338 0.170656,-0.53107 0.379236,-0.46155 0.20858,0.0695 0.379236,0.27723 0.379236,0.46155 0,0.18433 -0.170656,0.39203 -0.379236,0.46155 -0.20858,0.0695 -0.379236,-0.13817 -0.379236,-0.46155 z m 1.602566,0.20077 c -0.240972,-0.3899 0.315527,-0.81091 0.641284,-0.48516 0.335416,0.33542 0.272905,0.81356 -0.106363,0.81356 -0.182577,0 -0.423292,-0.14778 -0.534921,-0.3284 z m 1.464432,0.10281 c -0.281845,-0.28185 0.03675,-0.83274 0.4816,-0.83274 0.182577,0 0.331958,0.23812 0.331958,0.52916 0,0.54554 -0.416265,0.70087 -0.813558,0.30358 z"
         id="path4575"
         inkscape:connector-curvature="0" />
    </g>
  </g>
</svg>
