<?xml version="1.0" encoding="UTF-8" standalone="no"?>
<!-- Created with Inkscape (http://www.inkscape.org/) -->

<svg
   xmlns:dc="http://purl.org/dc/elements/1.1/"
   xmlns:cc="http://creativecommons.org/ns#"
   xmlns:rdf="http://www.w3.org/1999/02/22-rdf-syntax-ns#"
   xmlns:svg="http://www.w3.org/2000/svg"
   xmlns="http://www.w3.org/2000/svg"
   xmlns:sodipodi="http://sodipodi.sourceforge.net/DTD/sodipodi-0.dtd"
   xmlns:inkscape="http://www.inkscape.org/namespaces/inkscape"
   width="28.281582mm"
   height="29.052462mm"
   viewBox="0 0 28.281582 29.052462"
   version="1.1"
   id="svg8"
   inkscape:version="0.92.1 r15371"
   sodipodi:docname="1.svg">
  <defs
     id="defs2">
    <path
       d="m 343.956,354 h -11.924 c -1.125,0 -2.025,0.899 -2.025,2.025 v 4.162 H 281.86 v -4.162 c 0,-1.126 -0.9,-2.025 -2.025,-2.025 h -11.812 c -1.125,0 -2.025,0.899 -2.025,2.025 v 12.262 c 0,1.126 0.9,2.025 2.025,2.025 h 11.924 c 1.126,0 2.025,-0.898 2.025,-2.025 v -4.162 h 22.161 c -0.226,4.95 -12.262,28.24 -19.91,41.965 -0.45,0.788 -0.226,1.8 0.448,2.475 6.863,5.851 8.55,11.59 9,14.513 h -2.587 c -1.125,0 -2.025,0.9 -2.025,2.025 v 9.9 c 0,1.127 0.9,2.025 2.025,2.025 h 29.922 c 1.126,0 2.025,-0.898 2.025,-2.025 v -9.9 c 0,-1.125 -0.899,-2.025 -2.025,-2.025 h -2.586 c 0.449,-2.923 2.138,-8.662 8.999,-14.513 0.675,-0.563 0.9,-1.687 0.45,-2.475 -7.649,-13.725 -19.687,-37.126 -19.912,-41.965 h 22.049 v 4.162 c 0,1.126 0.9,2.025 2.025,2.025 h 11.924 c 1.125,0 2.025,-0.898 2.025,-2.025 V 356.025 C 345.981,354.899 345.081,354 343.956,354 Z m -66.033,12.262 h -7.986 v -8.326 h 7.986 z m 28.124,32.965 c 1.461,0 2.587,1.126 2.587,2.589 0,1.462 -1.126,2.587 -2.587,2.587 -1.463,0 -2.587,-1.125 -2.587,-2.587 -10e-4,-1.351 1.236,-2.589 2.587,-2.589 z m 13.049,33.639 H 293.11 v -5.963 h 2.699 20.587 2.699 v 5.963 z m -4.613,-9.9 h -16.875 c -0.449,-3.262 -2.137,-9.787 -9.223,-16.426 2.699,-4.951 10.798,-19.802 15.636,-30.827 v 19.914 c -2.587,0.789 -4.5,3.263 -4.5,6.189 0,3.6 2.925,6.524 6.525,6.524 3.6,0 6.523,-2.925 6.523,-6.524 0,-2.926 -1.911,-5.289 -4.498,-6.189 v -20.026 c 4.948,11.025 12.935,25.877 15.636,30.939 -7.087,6.639 -8.773,13.164 -9.224,16.426 z m 27.561,-56.704 h -7.986 v -3.712 c 0,-0.112 0,-0.226 0,-0.338 0,-0.112 0,-0.224 0,-0.338 v -3.824 h 7.986 z"
       id="SVGID_1_"
       inkscape:connector-curvature="0" />
    <rect
       height="792"
       width="612"
       y="-353.98901"
       x="266"
       id="SVGID_2_" />
  </defs>
  <sodipodi:namedview
     id="base"
     pagecolor="#ffffff"
     bordercolor="#666666"
     borderopacity="1.0"
     inkscape:pageopacity="0.0"
     inkscape:pageshadow="2"
     inkscape:zoom="1.4"
     inkscape:cx="186.99922"
     inkscape:cy="38.700847"
     inkscape:document-units="mm"
     inkscape:current-layer="layer1"
     showgrid="false"
     inkscape:pagecheckerboard="true"
     fit-margin-top="0"
     fit-margin-left="0"
     fit-margin-right="0"
     fit-margin-bottom="0"
     inkscape:window-width="1366"
     inkscape:window-height="705"
     inkscape:window-x="-8"
     inkscape:window-y="-8"
     inkscape:window-maximized="1" />
  <metadata
     id="metadata5">
    <rdf:RDF>
      <cc:Work
         rdf:about="">
        <dc:format>image/svg+xml</dc:format>
        <dc:type
           rdf:resource="http://purl.org/dc/dcmitype/StillImage" />
        <dc:title></dc:title>
      </cc:Work>
    </rdf:RDF>
  </metadata>
  <g
     inkscape:label="Layer 1"
     inkscape:groupmode="layer"
     id="layer1"
     transform="translate(-53.044466,-80.898411)">
    <path
       style="opacity:0.98000004;fill:#3f3f3f;stroke-width:0.35277778"
       d="m 61.336697,109.52833 c -0.1038,-0.27049 -0.14002,-1.33955 -0.0805,-2.37569 0.0922,-1.60486 0.2236,-1.91214 0.88719,-2.07462 0.77867,-0.19065 0.77872,-0.19125 0.1346,-1.6249 -0.3544,-0.78879 -1.14104,-1.99987 -1.74811,-2.69127 l -1.10375,-1.257103 3.33348,-6.65734 c 1.83342,-3.66153 3.43768,-7.0939 3.56503,-7.62747 l 0.23155,-0.97014 h -3.91879 -3.91881 v 1.05833 1.05833 h -2.837061 -2.83706 l 0.10303,-2.73402 0.10304,-2.734026 h 2.64583 c 2.624121,0 2.646751,0.008 2.757461,0.970136 l 0.11163,0.97014 h 8.4198 8.4198 l 0.11163,-0.97014 c 0.11071,-0.962176 0.13334,-0.970136 2.75746,-0.970136 h 2.64584 l 0.10303,2.734026 0.10303,2.73402 h -2.83706 -2.83706 v -1.05833 -1.05833 h -3.90433 c -3.87693,0 -3.90283,0.006 -3.6911,0.79375 0.11728,0.43656 1.72501,3.86189 3.57273,7.61184 l 3.35951,6.8181 -0.99132,1.242663 c -2.38086,2.98449 -2.7654,4.1242 -1.50292,4.45435 0.64797,0.16945 0.71214,0.42121 0.61736,2.42239 l -0.10576,2.2333 -5.74035,0.097 c -4.64909,0.0785 -5.77622,0.003 -5.92906,-0.39483 z m 10.43468,-1.9952 v -1.05833 h -4.58611 -4.58611 v 1.05833 1.05833 h 4.58611 4.58611 z m -1.15499,-3.96875 c 0.22135,-0.82462 0.94355,-2.1343 1.60489,-2.91042 l 1.20243,-1.411113 -2.75988,-5.29166 -2.75988,-5.29167 -0.007,3.29484 c -0.006,2.93822 0.0746,3.36054 0.74309,3.90187 1.4876,1.20459 0.52248,3.91579 -1.39391,3.91579 -1.98275,0 -2.90978,-2.44319 -1.47241,-3.88056 0.60626,-0.60625 0.70362,-1.16481 0.6918,-3.96875 l -0.0138,-3.26319 -2.62367,5.11528 c -1.44302,2.8134 -2.62745,5.23296 -2.63207,5.37681 -0.005,0.14384 0.54722,0.989443 1.22631,1.879103 0.6791,0.88967 1.23472,1.75383 1.23472,1.92037 0,0.16653 0.15483,0.71 0.34405,1.2077 0.33125,0.87125 0.45318,0.90491 3.27822,0.90491 h 2.93418 z m -2.60789,-5.706853 c 0.23047,-0.60059 -0.63647,-1.41757 -1.16055,-1.09367 -0.20253,0.12517 -0.36823,0.53571 -0.36823,0.91231 0,0.80847 1.23206,0.95463 1.52878,0.18136 z M 57.307486,83.544237 v -1.41111 h -1.41111 -1.41111 v 1.41111 1.41111 h 1.41111 1.41111 z m 22.577781,0 v -1.41111 h -1.41111 -1.41111 v 1.41111 1.41111 h 1.41111 1.41111 z"
       id="path77"
       inkscape:connector-curvature="0" />
  </g>
</svg>
